<mxfile host="app.diagrams.net" agent="Mozilla/5.0 (Windows NT 10.0; Win64; x64) AppleWebKit/537.36 (KHTML, like Gecko) Chrome/132.0.0.0 Safari/537.36" version="26.0.7" pages="2">
  <diagram name="Page-1" id="Z0bTGEmghj0v0F-hLk_w">
    <mxGraphModel dx="1035" dy="595" grid="1" gridSize="10" guides="1" tooltips="1" connect="1" arrows="1" fold="1" page="1" pageScale="1" pageWidth="850" pageHeight="1100" math="0" shadow="0">
      <root>
        <mxCell id="0" />
        <mxCell id="1" parent="0" />
        <mxCell id="n3AzVM-CFkoOQMawForS-1" value="" style="rounded=1;whiteSpace=wrap;html=1;" vertex="1" parent="1">
          <mxGeometry x="340" y="40" width="170" height="60" as="geometry" />
        </mxCell>
        <mxCell id="n3AzVM-CFkoOQMawForS-4" value="" style="rounded=1;whiteSpace=wrap;html=1;" vertex="1" parent="1">
          <mxGeometry x="315" y="160" width="220" height="60" as="geometry" />
        </mxCell>
        <mxCell id="n3AzVM-CFkoOQMawForS-8" value="&lt;font style=&quot;font-size: 21px;&quot;&gt;&lt;b&gt;User&lt;/b&gt;&lt;/font&gt;" style="text;html=1;align=center;verticalAlign=middle;resizable=0;points=[];autosize=1;strokeColor=none;fillColor=none;" vertex="1" parent="1">
          <mxGeometry x="390" y="50" width="70" height="40" as="geometry" />
        </mxCell>
        <mxCell id="n3AzVM-CFkoOQMawForS-9" value="&lt;b&gt;&lt;font style=&quot;font-size: 21px;&quot;&gt;Navigation system&lt;/font&gt;&lt;/b&gt;" style="text;html=1;align=center;verticalAlign=middle;resizable=0;points=[];autosize=1;strokeColor=none;fillColor=none;" vertex="1" parent="1">
          <mxGeometry x="320" y="170" width="210" height="40" as="geometry" />
        </mxCell>
        <mxCell id="n3AzVM-CFkoOQMawForS-13" value="" style="endArrow=classic;html=1;rounded=0;" edge="1" parent="1">
          <mxGeometry width="50" height="50" relative="1" as="geometry">
            <mxPoint x="424" y="100" as="sourcePoint" />
            <mxPoint x="424" y="160" as="targetPoint" />
          </mxGeometry>
        </mxCell>
        <mxCell id="n3AzVM-CFkoOQMawForS-14" value="" style="endArrow=classic;html=1;rounded=0;" edge="1" parent="1">
          <mxGeometry width="50" height="50" relative="1" as="geometry">
            <mxPoint x="425" y="220" as="sourcePoint" />
            <mxPoint x="425" y="280" as="targetPoint" />
          </mxGeometry>
        </mxCell>
        <mxCell id="n3AzVM-CFkoOQMawForS-16" value="" style="endArrow=none;html=1;rounded=0;" edge="1" parent="1">
          <mxGeometry width="50" height="50" relative="1" as="geometry">
            <mxPoint x="210" y="280" as="sourcePoint" />
            <mxPoint x="640" y="280" as="targetPoint" />
          </mxGeometry>
        </mxCell>
        <mxCell id="n3AzVM-CFkoOQMawForS-17" value="" style="endArrow=classic;html=1;rounded=0;" edge="1" parent="1">
          <mxGeometry width="50" height="50" relative="1" as="geometry">
            <mxPoint x="210" y="280" as="sourcePoint" />
            <mxPoint x="210" y="350" as="targetPoint" />
          </mxGeometry>
        </mxCell>
        <mxCell id="n3AzVM-CFkoOQMawForS-18" value="" style="endArrow=classic;html=1;rounded=0;" edge="1" parent="1">
          <mxGeometry width="50" height="50" relative="1" as="geometry">
            <mxPoint x="520" y="280" as="sourcePoint" />
            <mxPoint x="520" y="350" as="targetPoint" />
          </mxGeometry>
        </mxCell>
        <mxCell id="n3AzVM-CFkoOQMawForS-19" value="" style="endArrow=classic;html=1;rounded=0;" edge="1" parent="1">
          <mxGeometry width="50" height="50" relative="1" as="geometry">
            <mxPoint x="320" y="280" as="sourcePoint" />
            <mxPoint x="320" y="350" as="targetPoint" />
          </mxGeometry>
        </mxCell>
        <mxCell id="n3AzVM-CFkoOQMawForS-20" value="" style="endArrow=classic;html=1;rounded=0;" edge="1" parent="1">
          <mxGeometry width="50" height="50" relative="1" as="geometry">
            <mxPoint x="640" y="280" as="sourcePoint" />
            <mxPoint x="640" y="350" as="targetPoint" />
          </mxGeometry>
        </mxCell>
        <mxCell id="n3AzVM-CFkoOQMawForS-21" value="" style="endArrow=classic;html=1;rounded=0;" edge="1" parent="1">
          <mxGeometry width="50" height="50" relative="1" as="geometry">
            <mxPoint x="425" y="280" as="sourcePoint" />
            <mxPoint x="425" y="350" as="targetPoint" />
          </mxGeometry>
        </mxCell>
        <mxCell id="n3AzVM-CFkoOQMawForS-22" value="" style="rounded=1;whiteSpace=wrap;html=1;" vertex="1" parent="1">
          <mxGeometry x="130" y="350" width="110" height="60" as="geometry" />
        </mxCell>
        <mxCell id="n3AzVM-CFkoOQMawForS-24" value="" style="rounded=1;whiteSpace=wrap;html=1;" vertex="1" parent="1">
          <mxGeometry x="250" y="350" width="110" height="60" as="geometry" />
        </mxCell>
        <mxCell id="n3AzVM-CFkoOQMawForS-25" value="" style="rounded=1;whiteSpace=wrap;html=1;" vertex="1" parent="1">
          <mxGeometry x="370" y="350" width="110" height="60" as="geometry" />
        </mxCell>
        <mxCell id="n3AzVM-CFkoOQMawForS-26" value="" style="rounded=1;whiteSpace=wrap;html=1;" vertex="1" parent="1">
          <mxGeometry x="490" y="350" width="110" height="60" as="geometry" />
        </mxCell>
        <mxCell id="n3AzVM-CFkoOQMawForS-27" value="" style="rounded=1;whiteSpace=wrap;html=1;" vertex="1" parent="1">
          <mxGeometry x="610" y="350" width="110" height="60" as="geometry" />
        </mxCell>
        <mxCell id="n3AzVM-CFkoOQMawForS-28" value="&lt;b&gt;&lt;font style=&quot;font-size: 21px;&quot;&gt;HELP&lt;/font&gt;&lt;/b&gt;" style="text;html=1;align=center;verticalAlign=middle;resizable=0;points=[];autosize=1;strokeColor=none;fillColor=none;" vertex="1" parent="1">
          <mxGeometry x="505" y="360" width="80" height="40" as="geometry" />
        </mxCell>
        <mxCell id="n3AzVM-CFkoOQMawForS-29" value="&lt;b&gt;&lt;font style=&quot;font-size: 21px;&quot;&gt;HOME&lt;/font&gt;&lt;/b&gt;" style="text;html=1;align=center;verticalAlign=middle;resizable=0;points=[];autosize=1;strokeColor=none;fillColor=none;" vertex="1" parent="1">
          <mxGeometry x="620" y="360" width="90" height="40" as="geometry" />
        </mxCell>
        <mxCell id="n3AzVM-CFkoOQMawForS-30" value="&lt;b&gt;&lt;font style=&quot;font-size: 17px;&quot;&gt;SKIN&amp;nbsp;&lt;/font&gt;&lt;/b&gt;" style="text;html=1;align=center;verticalAlign=middle;resizable=0;points=[];autosize=1;strokeColor=none;fillColor=none;" vertex="1" parent="1">
          <mxGeometry x="390" y="350" width="70" height="30" as="geometry" />
        </mxCell>
        <mxCell id="n3AzVM-CFkoOQMawForS-31" value="&lt;font style=&quot;font-size: 18px;&quot;&gt;&lt;b&gt;PRODUCTS&lt;/b&gt;&lt;/font&gt;" style="text;html=1;align=center;verticalAlign=middle;resizable=0;points=[];autosize=1;strokeColor=none;fillColor=none;" vertex="1" parent="1">
          <mxGeometry x="365" y="370" width="120" height="40" as="geometry" />
        </mxCell>
        <mxCell id="n3AzVM-CFkoOQMawForS-32" value="&lt;b&gt;&lt;font style=&quot;font-size: 17px;&quot;&gt;DOCTOR&lt;/font&gt;&lt;/b&gt;" style="text;html=1;align=center;verticalAlign=middle;resizable=0;points=[];autosize=1;strokeColor=none;fillColor=none;" vertex="1" parent="1">
          <mxGeometry x="135" y="350" width="100" height="30" as="geometry" />
        </mxCell>
        <mxCell id="n3AzVM-CFkoOQMawForS-33" value="&lt;b&gt;&lt;font style=&quot;font-size: 18px;&quot;&gt;APPOINT&lt;/font&gt;&lt;/b&gt;" style="text;html=1;align=center;verticalAlign=middle;resizable=0;points=[];autosize=1;strokeColor=none;fillColor=none;" vertex="1" parent="1">
          <mxGeometry x="135" y="370" width="100" height="40" as="geometry" />
        </mxCell>
        <mxCell id="n3AzVM-CFkoOQMawForS-34" value="&lt;b&gt;&lt;font style=&quot;font-size: 18px;&quot;&gt;TESTING&lt;/font&gt;&lt;/b&gt;" style="text;html=1;align=center;verticalAlign=middle;resizable=0;points=[];autosize=1;strokeColor=none;fillColor=none;" vertex="1" parent="1">
          <mxGeometry x="255" y="370" width="100" height="40" as="geometry" />
        </mxCell>
        <mxCell id="n3AzVM-CFkoOQMawForS-35" value="&lt;b&gt;&lt;font style=&quot;font-size: 17px;&quot;&gt;SKIN&amp;nbsp;&lt;/font&gt;&lt;/b&gt;" style="text;html=1;align=center;verticalAlign=middle;resizable=0;points=[];autosize=1;strokeColor=none;fillColor=none;" vertex="1" parent="1">
          <mxGeometry x="270" y="350" width="70" height="30" as="geometry" />
        </mxCell>
        <mxCell id="n3AzVM-CFkoOQMawForS-36" value="" style="endArrow=classic;html=1;rounded=0;" edge="1" parent="1">
          <mxGeometry width="50" height="50" relative="1" as="geometry">
            <mxPoint x="304.5" y="410" as="sourcePoint" />
            <mxPoint x="304.5" y="470" as="targetPoint" />
          </mxGeometry>
        </mxCell>
        <mxCell id="n3AzVM-CFkoOQMawForS-37" value="" style="endArrow=classic;html=1;rounded=0;" edge="1" parent="1">
          <mxGeometry width="50" height="50" relative="1" as="geometry">
            <mxPoint x="184.5" y="410" as="sourcePoint" />
            <mxPoint x="184.5" y="470" as="targetPoint" />
          </mxGeometry>
        </mxCell>
        <mxCell id="n3AzVM-CFkoOQMawForS-38" value="" style="endArrow=classic;html=1;rounded=0;" edge="1" parent="1">
          <mxGeometry width="50" height="50" relative="1" as="geometry">
            <mxPoint x="664.5" y="410" as="sourcePoint" />
            <mxPoint x="664.5" y="470" as="targetPoint" />
          </mxGeometry>
        </mxCell>
        <mxCell id="n3AzVM-CFkoOQMawForS-39" value="" style="endArrow=classic;html=1;rounded=0;" edge="1" parent="1">
          <mxGeometry width="50" height="50" relative="1" as="geometry">
            <mxPoint x="424" y="410" as="sourcePoint" />
            <mxPoint x="424" y="470" as="targetPoint" />
          </mxGeometry>
        </mxCell>
        <mxCell id="n3AzVM-CFkoOQMawForS-40" value="" style="endArrow=classic;html=1;rounded=0;" edge="1" parent="1">
          <mxGeometry width="50" height="50" relative="1" as="geometry">
            <mxPoint x="544.5" y="410" as="sourcePoint" />
            <mxPoint x="544.5" y="470" as="targetPoint" />
          </mxGeometry>
        </mxCell>
        <mxCell id="n3AzVM-CFkoOQMawForS-66" style="edgeStyle=orthogonalEdgeStyle;rounded=0;orthogonalLoop=1;jettySize=auto;html=1;entryX=0.5;entryY=1;entryDx=0;entryDy=0;" edge="1" parent="1" source="n3AzVM-CFkoOQMawForS-41" target="n3AzVM-CFkoOQMawForS-44">
          <mxGeometry relative="1" as="geometry" />
        </mxCell>
        <mxCell id="n3AzVM-CFkoOQMawForS-67" style="edgeStyle=orthogonalEdgeStyle;rounded=0;orthogonalLoop=1;jettySize=auto;html=1;entryX=0.5;entryY=0;entryDx=0;entryDy=0;" edge="1" parent="1" source="n3AzVM-CFkoOQMawForS-41" target="n3AzVM-CFkoOQMawForS-43">
          <mxGeometry relative="1" as="geometry" />
        </mxCell>
        <mxCell id="n3AzVM-CFkoOQMawForS-41" value="" style="ellipse;whiteSpace=wrap;html=1;" vertex="1" parent="1">
          <mxGeometry x="140" y="580" width="90" height="60" as="geometry" />
        </mxCell>
        <mxCell id="n3AzVM-CFkoOQMawForS-42" value="" style="ellipse;whiteSpace=wrap;html=1;" vertex="1" parent="1">
          <mxGeometry x="140" y="470" width="90" height="60" as="geometry" />
        </mxCell>
        <mxCell id="n3AzVM-CFkoOQMawForS-43" value="" style="ellipse;whiteSpace=wrap;html=1;" vertex="1" parent="1">
          <mxGeometry x="30" y="650" width="90" height="60" as="geometry" />
        </mxCell>
        <mxCell id="n3AzVM-CFkoOQMawForS-44" value="" style="ellipse;whiteSpace=wrap;html=1;" vertex="1" parent="1">
          <mxGeometry x="30" y="510" width="90" height="60" as="geometry" />
        </mxCell>
        <mxCell id="n3AzVM-CFkoOQMawForS-45" value="" style="ellipse;whiteSpace=wrap;html=1;" vertex="1" parent="1">
          <mxGeometry x="260" y="470" width="90" height="60" as="geometry" />
        </mxCell>
        <mxCell id="n3AzVM-CFkoOQMawForS-46" value="" style="ellipse;whiteSpace=wrap;html=1;" vertex="1" parent="1">
          <mxGeometry x="140" y="760" width="90" height="60" as="geometry" />
        </mxCell>
        <mxCell id="n3AzVM-CFkoOQMawForS-74" style="edgeStyle=orthogonalEdgeStyle;rounded=0;orthogonalLoop=1;jettySize=auto;html=1;entryX=1;entryY=0.5;entryDx=0;entryDy=0;" edge="1" parent="1" source="n3AzVM-CFkoOQMawForS-47" target="n3AzVM-CFkoOQMawForS-41">
          <mxGeometry relative="1" as="geometry" />
        </mxCell>
        <mxCell id="n3AzVM-CFkoOQMawForS-47" value="" style="ellipse;whiteSpace=wrap;html=1;" vertex="1" parent="1">
          <mxGeometry x="260" y="630" width="90" height="60" as="geometry" />
        </mxCell>
        <mxCell id="n3AzVM-CFkoOQMawForS-48" value="" style="endArrow=classic;html=1;rounded=0;entryX=0.5;entryY=0;entryDx=0;entryDy=0;" edge="1" parent="1" target="n3AzVM-CFkoOQMawForS-41">
          <mxGeometry width="50" height="50" relative="1" as="geometry">
            <mxPoint x="184.5" y="530" as="sourcePoint" />
            <mxPoint x="185" y="560" as="targetPoint" />
          </mxGeometry>
        </mxCell>
        <mxCell id="n3AzVM-CFkoOQMawForS-56" value="" style="endArrow=classic;html=1;rounded=0;exitX=0.5;exitY=1;exitDx=0;exitDy=0;" edge="1" parent="1" source="n3AzVM-CFkoOQMawForS-41">
          <mxGeometry width="50" height="50" relative="1" as="geometry">
            <mxPoint x="185" y="660" as="sourcePoint" />
            <mxPoint x="185" y="760" as="targetPoint" />
          </mxGeometry>
        </mxCell>
        <mxCell id="n3AzVM-CFkoOQMawForS-61" value="" style="endArrow=classic;html=1;rounded=0;entryX=0.5;entryY=0;entryDx=0;entryDy=0;" edge="1" parent="1" target="n3AzVM-CFkoOQMawForS-47">
          <mxGeometry width="50" height="50" relative="1" as="geometry">
            <mxPoint x="304.5" y="530" as="sourcePoint" />
            <mxPoint x="305" y="580" as="targetPoint" />
          </mxGeometry>
        </mxCell>
        <mxCell id="n3AzVM-CFkoOQMawForS-73" style="edgeStyle=orthogonalEdgeStyle;rounded=0;orthogonalLoop=1;jettySize=auto;html=1;" edge="1" parent="1" source="n3AzVM-CFkoOQMawForS-69">
          <mxGeometry relative="1" as="geometry">
            <mxPoint x="425" y="580" as="targetPoint" />
          </mxGeometry>
        </mxCell>
        <mxCell id="n3AzVM-CFkoOQMawForS-69" value="" style="ellipse;whiteSpace=wrap;html=1;" vertex="1" parent="1">
          <mxGeometry x="380" y="470" width="90" height="60" as="geometry" />
        </mxCell>
        <mxCell id="n3AzVM-CFkoOQMawForS-70" value="" style="ellipse;whiteSpace=wrap;html=1;" vertex="1" parent="1">
          <mxGeometry x="500" y="470" width="90" height="60" as="geometry" />
        </mxCell>
        <mxCell id="n3AzVM-CFkoOQMawForS-71" value="" style="ellipse;whiteSpace=wrap;html=1;" vertex="1" parent="1">
          <mxGeometry x="500" y="580" width="90" height="60" as="geometry" />
        </mxCell>
        <mxCell id="n3AzVM-CFkoOQMawForS-75" style="edgeStyle=orthogonalEdgeStyle;rounded=0;orthogonalLoop=1;jettySize=auto;html=1;entryX=1;entryY=0;entryDx=0;entryDy=0;" edge="1" parent="1" source="n3AzVM-CFkoOQMawForS-72" target="n3AzVM-CFkoOQMawForS-41">
          <mxGeometry relative="1" as="geometry" />
        </mxCell>
        <mxCell id="n3AzVM-CFkoOQMawForS-72" value="" style="ellipse;whiteSpace=wrap;html=1;" vertex="1" parent="1">
          <mxGeometry x="380" y="580" width="90" height="60" as="geometry" />
        </mxCell>
        <mxCell id="n3AzVM-CFkoOQMawForS-78" value="" style="ellipse;whiteSpace=wrap;html=1;" vertex="1" parent="1">
          <mxGeometry x="500" y="680" width="90" height="60" as="geometry" />
        </mxCell>
        <mxCell id="n3AzVM-CFkoOQMawForS-80" value="" style="ellipse;whiteSpace=wrap;html=1;" vertex="1" parent="1">
          <mxGeometry x="620" y="580" width="90" height="60" as="geometry" />
        </mxCell>
        <mxCell id="n3AzVM-CFkoOQMawForS-109" style="edgeStyle=orthogonalEdgeStyle;rounded=0;orthogonalLoop=1;jettySize=auto;html=1;entryX=0.5;entryY=0;entryDx=0;entryDy=0;" edge="1" parent="1" source="n3AzVM-CFkoOQMawForS-81" target="n3AzVM-CFkoOQMawForS-107">
          <mxGeometry relative="1" as="geometry" />
        </mxCell>
        <mxCell id="n3AzVM-CFkoOQMawForS-81" value="" style="ellipse;whiteSpace=wrap;html=1;" vertex="1" parent="1">
          <mxGeometry x="740" y="580" width="90" height="60" as="geometry" />
        </mxCell>
        <mxCell id="n3AzVM-CFkoOQMawForS-83" style="edgeStyle=orthogonalEdgeStyle;rounded=0;orthogonalLoop=1;jettySize=auto;html=1;entryX=0.5;entryY=0;entryDx=0;entryDy=0;" edge="1" parent="1" source="n3AzVM-CFkoOQMawForS-82" target="n3AzVM-CFkoOQMawForS-80">
          <mxGeometry relative="1" as="geometry" />
        </mxCell>
        <mxCell id="n3AzVM-CFkoOQMawForS-82" value="" style="ellipse;whiteSpace=wrap;html=1;" vertex="1" parent="1">
          <mxGeometry x="620" y="470" width="90" height="60" as="geometry" />
        </mxCell>
        <mxCell id="n3AzVM-CFkoOQMawForS-85" value="&lt;b&gt;&lt;font style=&quot;font-size: 16px;&quot;&gt;schedule&lt;/font&gt;&lt;/b&gt;" style="text;html=1;align=center;verticalAlign=middle;resizable=0;points=[];autosize=1;strokeColor=none;fillColor=none;" vertex="1" parent="1">
          <mxGeometry x="140" y="485" width="90" height="30" as="geometry" />
        </mxCell>
        <mxCell id="n3AzVM-CFkoOQMawForS-86" value="&lt;b&gt;&lt;font style=&quot;font-size: 18px;&quot;&gt;payment&lt;/font&gt;&lt;/b&gt;" style="text;html=1;align=center;verticalAlign=middle;resizable=0;points=[];autosize=1;strokeColor=none;fillColor=none;" vertex="1" parent="1">
          <mxGeometry x="135" y="590" width="100" height="40" as="geometry" />
        </mxCell>
        <mxCell id="n3AzVM-CFkoOQMawForS-87" value="&lt;b&gt;&lt;font style=&quot;font-size: 18px;&quot;&gt;upi id&lt;/font&gt;&lt;/b&gt;" style="text;html=1;align=center;verticalAlign=middle;resizable=0;points=[];autosize=1;strokeColor=none;fillColor=none;" vertex="1" parent="1">
          <mxGeometry x="40" y="520" width="70" height="40" as="geometry" />
        </mxCell>
        <mxCell id="n3AzVM-CFkoOQMawForS-89" value="&lt;b&gt;&lt;font style=&quot;font-size: 14px;&quot;&gt;credit /&lt;/font&gt;&lt;/b&gt;" style="text;html=1;align=center;verticalAlign=middle;resizable=0;points=[];autosize=1;strokeColor=none;fillColor=none;" vertex="1" parent="1">
          <mxGeometry x="40" y="650" width="70" height="30" as="geometry" />
        </mxCell>
        <mxCell id="n3AzVM-CFkoOQMawForS-90" value="&lt;b&gt;&lt;font style=&quot;font-size: 14px;&quot;&gt;debit&lt;/font&gt;&lt;/b&gt;" style="text;html=1;align=center;verticalAlign=middle;resizable=0;points=[];autosize=1;strokeColor=none;fillColor=none;" vertex="1" parent="1">
          <mxGeometry x="45" y="670" width="60" height="30" as="geometry" />
        </mxCell>
        <mxCell id="n3AzVM-CFkoOQMawForS-91" value="&lt;b&gt;&lt;font style=&quot;font-size: 18px;&quot;&gt;invoices&lt;/font&gt;&lt;/b&gt;" style="text;html=1;align=center;verticalAlign=middle;resizable=0;points=[];autosize=1;strokeColor=none;fillColor=none;" vertex="1" parent="1">
          <mxGeometry x="135" y="770" width="100" height="40" as="geometry" />
        </mxCell>
        <mxCell id="n3AzVM-CFkoOQMawForS-92" value="&lt;font style=&quot;font-size: 15px;&quot;&gt;&lt;b&gt;face reco&lt;/b&gt;&lt;/font&gt;" style="text;html=1;align=center;verticalAlign=middle;resizable=0;points=[];autosize=1;strokeColor=none;fillColor=none;" vertex="1" parent="1">
          <mxGeometry x="260" y="485" width="90" height="30" as="geometry" />
        </mxCell>
        <mxCell id="n3AzVM-CFkoOQMawForS-93" value="&lt;b&gt;&lt;font style=&quot;font-size: 18px;&quot;&gt;recomd&lt;/font&gt;&lt;/b&gt;" style="text;html=1;align=center;verticalAlign=middle;resizable=0;points=[];autosize=1;strokeColor=none;fillColor=none;" vertex="1" parent="1">
          <mxGeometry x="260" y="640" width="90" height="40" as="geometry" />
        </mxCell>
        <mxCell id="n3AzVM-CFkoOQMawForS-94" value="&lt;b&gt;&lt;font style=&quot;font-size: 24px;&quot;&gt;cart&lt;/font&gt;&lt;/b&gt;" style="text;html=1;align=center;verticalAlign=middle;resizable=0;points=[];autosize=1;strokeColor=none;fillColor=none;" vertex="1" parent="1">
          <mxGeometry x="390" y="480" width="70" height="40" as="geometry" />
        </mxCell>
        <mxCell id="n3AzVM-CFkoOQMawForS-95" value="&lt;b&gt;&lt;font style=&quot;font-size: 18px;&quot;&gt;payment&lt;/font&gt;&lt;/b&gt;" style="text;html=1;align=center;verticalAlign=middle;resizable=0;points=[];autosize=1;strokeColor=none;fillColor=none;" vertex="1" parent="1">
          <mxGeometry x="375" y="590" width="100" height="40" as="geometry" />
        </mxCell>
        <mxCell id="n3AzVM-CFkoOQMawForS-96" value="&lt;b&gt;&lt;font style=&quot;font-size: 18px;&quot;&gt;address&lt;/font&gt;&lt;/b&gt;" style="text;html=1;align=center;verticalAlign=middle;resizable=0;points=[];autosize=1;strokeColor=none;fillColor=none;" vertex="1" parent="1">
          <mxGeometry x="500" y="480" width="90" height="40" as="geometry" />
        </mxCell>
        <mxCell id="n3AzVM-CFkoOQMawForS-97" value="&lt;b&gt;&lt;font style=&quot;font-size: 19px;&quot;&gt;contact&lt;/font&gt;&lt;/b&gt;" style="text;html=1;align=center;verticalAlign=middle;resizable=0;points=[];autosize=1;strokeColor=none;fillColor=none;" vertex="1" parent="1">
          <mxGeometry x="500" y="590" width="90" height="40" as="geometry" />
        </mxCell>
        <mxCell id="n3AzVM-CFkoOQMawForS-98" value="&lt;b&gt;&lt;font style=&quot;font-size: 18px;&quot;&gt;email&lt;/font&gt;&lt;/b&gt;" style="text;html=1;align=center;verticalAlign=middle;resizable=0;points=[];autosize=1;strokeColor=none;fillColor=none;" vertex="1" parent="1">
          <mxGeometry x="510" y="690" width="70" height="40" as="geometry" />
        </mxCell>
        <mxCell id="n3AzVM-CFkoOQMawForS-99" value="&lt;b&gt;&lt;font style=&quot;font-size: 18px;&quot;&gt;log in&lt;/font&gt;&lt;/b&gt;" style="text;html=1;align=center;verticalAlign=middle;resizable=0;points=[];autosize=1;strokeColor=none;fillColor=none;" vertex="1" parent="1">
          <mxGeometry x="750" y="590" width="70" height="40" as="geometry" />
        </mxCell>
        <mxCell id="n3AzVM-CFkoOQMawForS-100" value="&lt;b&gt;&lt;font style=&quot;font-size: 18px;&quot;&gt;sign in&lt;/font&gt;&lt;/b&gt;" style="text;html=1;align=center;verticalAlign=middle;resizable=0;points=[];autosize=1;strokeColor=none;fillColor=none;" vertex="1" parent="1">
          <mxGeometry x="630" y="590" width="80" height="40" as="geometry" />
        </mxCell>
        <mxCell id="n3AzVM-CFkoOQMawForS-105" style="edgeStyle=orthogonalEdgeStyle;rounded=0;orthogonalLoop=1;jettySize=auto;html=1;entryX=0.5;entryY=0;entryDx=0;entryDy=0;" edge="1" parent="1" source="n3AzVM-CFkoOQMawForS-101" target="n3AzVM-CFkoOQMawForS-81">
          <mxGeometry relative="1" as="geometry" />
        </mxCell>
        <mxCell id="n3AzVM-CFkoOQMawForS-101" value="&lt;b&gt;&lt;font style=&quot;font-size: 18px;&quot;&gt;profile&lt;/font&gt;&lt;/b&gt;" style="text;html=1;align=center;verticalAlign=middle;resizable=0;points=[];autosize=1;strokeColor=none;fillColor=none;" vertex="1" parent="1">
          <mxGeometry x="625" y="480" width="80" height="40" as="geometry" />
        </mxCell>
        <mxCell id="n3AzVM-CFkoOQMawForS-103" value="" style="endArrow=none;html=1;rounded=0;exitX=0.5;exitY=0;exitDx=0;exitDy=0;" edge="1" parent="1" source="n3AzVM-CFkoOQMawForS-78">
          <mxGeometry width="50" height="50" relative="1" as="geometry">
            <mxPoint x="540" y="680" as="sourcePoint" />
            <mxPoint x="544.41" y="640" as="targetPoint" />
          </mxGeometry>
        </mxCell>
        <mxCell id="n3AzVM-CFkoOQMawForS-104" value="" style="endArrow=none;html=1;rounded=0;" edge="1" parent="1">
          <mxGeometry width="50" height="50" relative="1" as="geometry">
            <mxPoint x="544" y="580" as="sourcePoint" />
            <mxPoint x="544.41" y="530" as="targetPoint" />
          </mxGeometry>
        </mxCell>
        <mxCell id="n3AzVM-CFkoOQMawForS-107" value="" style="ellipse;whiteSpace=wrap;html=1;" vertex="1" parent="1">
          <mxGeometry x="740" y="680" width="90" height="60" as="geometry" />
        </mxCell>
        <mxCell id="n3AzVM-CFkoOQMawForS-110" value="&lt;b&gt;&lt;font style=&quot;font-size: 18px;&quot;&gt;log out&lt;/font&gt;&lt;/b&gt;" style="text;html=1;align=center;verticalAlign=middle;resizable=0;points=[];autosize=1;strokeColor=none;fillColor=none;" vertex="1" parent="1">
          <mxGeometry x="745" y="690" width="80" height="40" as="geometry" />
        </mxCell>
        <mxCell id="n3AzVM-CFkoOQMawForS-115" style="edgeStyle=orthogonalEdgeStyle;rounded=0;orthogonalLoop=1;jettySize=auto;html=1;" edge="1" parent="1" source="n3AzVM-CFkoOQMawForS-112">
          <mxGeometry relative="1" as="geometry">
            <mxPoint x="425" y="1080" as="targetPoint" />
          </mxGeometry>
        </mxCell>
        <mxCell id="n3AzVM-CFkoOQMawForS-112" value="" style="rounded=1;whiteSpace=wrap;html=1;" vertex="1" parent="1">
          <mxGeometry x="340" y="920" width="170" height="60" as="geometry" />
        </mxCell>
        <mxCell id="n3AzVM-CFkoOQMawForS-113" value="&lt;b&gt;&lt;font style=&quot;font-size: 18px;&quot;&gt;Admin&lt;/font&gt;&lt;/b&gt;" style="text;html=1;align=center;verticalAlign=middle;resizable=0;points=[];autosize=1;strokeColor=none;fillColor=none;" vertex="1" parent="1">
          <mxGeometry x="385" y="930" width="80" height="40" as="geometry" />
        </mxCell>
        <mxCell id="n3AzVM-CFkoOQMawForS-121" style="edgeStyle=orthogonalEdgeStyle;rounded=0;orthogonalLoop=1;jettySize=auto;html=1;entryX=0.5;entryY=0;entryDx=0;entryDy=0;" edge="1" parent="1" source="n3AzVM-CFkoOQMawForS-116" target="n3AzVM-CFkoOQMawForS-119">
          <mxGeometry relative="1" as="geometry" />
        </mxCell>
        <mxCell id="n3AzVM-CFkoOQMawForS-122" style="edgeStyle=orthogonalEdgeStyle;rounded=0;orthogonalLoop=1;jettySize=auto;html=1;entryX=0.5;entryY=0;entryDx=0;entryDy=0;" edge="1" parent="1" source="n3AzVM-CFkoOQMawForS-116" target="n3AzVM-CFkoOQMawForS-118">
          <mxGeometry relative="1" as="geometry" />
        </mxCell>
        <mxCell id="n3AzVM-CFkoOQMawForS-123" style="edgeStyle=orthogonalEdgeStyle;rounded=0;orthogonalLoop=1;jettySize=auto;html=1;entryX=0.5;entryY=0;entryDx=0;entryDy=0;" edge="1" parent="1" source="n3AzVM-CFkoOQMawForS-116" target="n3AzVM-CFkoOQMawForS-120">
          <mxGeometry relative="1" as="geometry" />
        </mxCell>
        <mxCell id="n3AzVM-CFkoOQMawForS-116" value="" style="rounded=1;whiteSpace=wrap;html=1;" vertex="1" parent="1">
          <mxGeometry x="315" y="1080" width="220" height="60" as="geometry" />
        </mxCell>
        <mxCell id="n3AzVM-CFkoOQMawForS-117" value="&lt;b&gt;&lt;font style=&quot;font-size: 22px;&quot;&gt;Permission&amp;nbsp;&lt;/font&gt;&lt;/b&gt;" style="text;html=1;align=center;verticalAlign=middle;resizable=0;points=[];autosize=1;strokeColor=none;fillColor=none;" vertex="1" parent="1">
          <mxGeometry x="350" y="1090" width="150" height="40" as="geometry" />
        </mxCell>
        <mxCell id="n3AzVM-CFkoOQMawForS-118" value="" style="rounded=1;whiteSpace=wrap;html=1;" vertex="1" parent="1">
          <mxGeometry x="170" y="1170" width="110" height="60" as="geometry" />
        </mxCell>
        <mxCell id="n3AzVM-CFkoOQMawForS-131" style="edgeStyle=orthogonalEdgeStyle;rounded=0;orthogonalLoop=1;jettySize=auto;html=1;entryX=0.5;entryY=0;entryDx=0;entryDy=0;" edge="1" parent="1" source="n3AzVM-CFkoOQMawForS-119" target="n3AzVM-CFkoOQMawForS-125">
          <mxGeometry relative="1" as="geometry" />
        </mxCell>
        <mxCell id="n3AzVM-CFkoOQMawForS-119" value="" style="rounded=1;whiteSpace=wrap;html=1;" vertex="1" parent="1">
          <mxGeometry x="560" y="1170" width="110" height="60" as="geometry" />
        </mxCell>
        <mxCell id="n3AzVM-CFkoOQMawForS-132" style="edgeStyle=orthogonalEdgeStyle;rounded=0;orthogonalLoop=1;jettySize=auto;html=1;entryX=0.5;entryY=0;entryDx=0;entryDy=0;" edge="1" parent="1" source="n3AzVM-CFkoOQMawForS-120" target="n3AzVM-CFkoOQMawForS-124">
          <mxGeometry relative="1" as="geometry" />
        </mxCell>
        <mxCell id="n3AzVM-CFkoOQMawForS-120" value="" style="rounded=1;whiteSpace=wrap;html=1;" vertex="1" parent="1">
          <mxGeometry x="370" y="1170" width="110" height="60" as="geometry" />
        </mxCell>
        <mxCell id="n3AzVM-CFkoOQMawForS-124" value="" style="ellipse;whiteSpace=wrap;html=1;" vertex="1" parent="1">
          <mxGeometry x="380" y="1260" width="90" height="60" as="geometry" />
        </mxCell>
        <mxCell id="n3AzVM-CFkoOQMawForS-133" style="edgeStyle=orthogonalEdgeStyle;rounded=0;orthogonalLoop=1;jettySize=auto;html=1;" edge="1" parent="1" source="n3AzVM-CFkoOQMawForS-125" target="n3AzVM-CFkoOQMawForS-129">
          <mxGeometry relative="1" as="geometry" />
        </mxCell>
        <mxCell id="n3AzVM-CFkoOQMawForS-134" style="edgeStyle=orthogonalEdgeStyle;rounded=0;orthogonalLoop=1;jettySize=auto;html=1;entryX=0;entryY=0.5;entryDx=0;entryDy=0;" edge="1" parent="1" source="n3AzVM-CFkoOQMawForS-125" target="n3AzVM-CFkoOQMawForS-130">
          <mxGeometry relative="1" as="geometry" />
        </mxCell>
        <mxCell id="n3AzVM-CFkoOQMawForS-125" value="" style="ellipse;whiteSpace=wrap;html=1;" vertex="1" parent="1">
          <mxGeometry x="570" y="1260" width="90" height="60" as="geometry" />
        </mxCell>
        <mxCell id="n3AzVM-CFkoOQMawForS-126" value="" style="ellipse;whiteSpace=wrap;html=1;" vertex="1" parent="1">
          <mxGeometry x="180" y="1260" width="90" height="60" as="geometry" />
        </mxCell>
        <mxCell id="n3AzVM-CFkoOQMawForS-127" value="" style="ellipse;whiteSpace=wrap;html=1;" vertex="1" parent="1">
          <mxGeometry x="180" y="1350" width="90" height="60" as="geometry" />
        </mxCell>
        <mxCell id="n3AzVM-CFkoOQMawForS-128" value="" style="ellipse;whiteSpace=wrap;html=1;" vertex="1" parent="1">
          <mxGeometry x="380" y="1350" width="90" height="60" as="geometry" />
        </mxCell>
        <mxCell id="n3AzVM-CFkoOQMawForS-129" value="" style="ellipse;whiteSpace=wrap;html=1;" vertex="1" parent="1">
          <mxGeometry x="705" y="1200" width="90" height="60" as="geometry" />
        </mxCell>
        <mxCell id="n3AzVM-CFkoOQMawForS-130" value="" style="ellipse;whiteSpace=wrap;html=1;" vertex="1" parent="1">
          <mxGeometry x="705" y="1330" width="90" height="60" as="geometry" />
        </mxCell>
        <mxCell id="n3AzVM-CFkoOQMawForS-135" value="" style="endArrow=none;html=1;rounded=0;" edge="1" parent="1">
          <mxGeometry width="50" height="50" relative="1" as="geometry">
            <mxPoint x="224" y="1230" as="sourcePoint" />
            <mxPoint x="224.41" y="1260" as="targetPoint" />
          </mxGeometry>
        </mxCell>
        <mxCell id="n3AzVM-CFkoOQMawForS-136" value="" style="endArrow=none;html=1;rounded=0;" edge="1" parent="1">
          <mxGeometry width="50" height="50" relative="1" as="geometry">
            <mxPoint x="224.41" y="1320" as="sourcePoint" />
            <mxPoint x="224" y="1350" as="targetPoint" />
          </mxGeometry>
        </mxCell>
        <mxCell id="n3AzVM-CFkoOQMawForS-139" value="" style="endArrow=none;html=1;rounded=0;" edge="1" parent="1">
          <mxGeometry width="50" height="50" relative="1" as="geometry">
            <mxPoint x="424" y="1320" as="sourcePoint" />
            <mxPoint x="424" y="1350" as="targetPoint" />
          </mxGeometry>
        </mxCell>
        <mxCell id="n3AzVM-CFkoOQMawForS-140" value="&lt;b&gt;&lt;font style=&quot;font-size: 15px;&quot;&gt;appointment&lt;/font&gt;&lt;/b&gt;" style="text;html=1;align=center;verticalAlign=middle;resizable=0;points=[];autosize=1;strokeColor=none;fillColor=none;" vertex="1" parent="1">
          <mxGeometry x="170" y="1185" width="110" height="30" as="geometry" />
        </mxCell>
        <mxCell id="n3AzVM-CFkoOQMawForS-141" value="&lt;b&gt;&lt;font style=&quot;font-size: 18px;&quot;&gt;sales&lt;/font&gt;&lt;/b&gt;" style="text;html=1;align=center;verticalAlign=middle;resizable=0;points=[];autosize=1;strokeColor=none;fillColor=none;" vertex="1" parent="1">
          <mxGeometry x="390" y="1180" width="70" height="40" as="geometry" />
        </mxCell>
        <mxCell id="n3AzVM-CFkoOQMawForS-142" value="&lt;b&gt;&lt;font style=&quot;font-size: 18px;&quot;&gt;renu&lt;/font&gt;&lt;/b&gt;" style="text;html=1;align=center;verticalAlign=middle;resizable=0;points=[];autosize=1;strokeColor=none;fillColor=none;" vertex="1" parent="1">
          <mxGeometry x="195" y="1270" width="60" height="40" as="geometry" />
        </mxCell>
        <mxCell id="n3AzVM-CFkoOQMawForS-143" value="&lt;b&gt;&lt;font style=&quot;font-size: 18px;&quot;&gt;akash&lt;/font&gt;&lt;/b&gt;" style="text;html=1;align=center;verticalAlign=middle;resizable=0;points=[];autosize=1;strokeColor=none;fillColor=none;" vertex="1" parent="1">
          <mxGeometry x="190" y="1360" width="70" height="40" as="geometry" />
        </mxCell>
        <mxCell id="n3AzVM-CFkoOQMawForS-144" value="&lt;b&gt;&lt;font style=&quot;font-size: 18px;&quot;&gt;orders&lt;/font&gt;&lt;/b&gt;" style="text;html=1;align=center;verticalAlign=middle;resizable=0;points=[];autosize=1;strokeColor=none;fillColor=none;" vertex="1" parent="1">
          <mxGeometry x="385" y="1270" width="80" height="40" as="geometry" />
        </mxCell>
        <mxCell id="n3AzVM-CFkoOQMawForS-145" value="&lt;b&gt;&lt;font style=&quot;font-size: 18px;&quot;&gt;stock&lt;/font&gt;&lt;/b&gt;" style="text;html=1;align=center;verticalAlign=middle;resizable=0;points=[];autosize=1;strokeColor=none;fillColor=none;" vertex="1" parent="1">
          <mxGeometry x="390" y="1360" width="70" height="40" as="geometry" />
        </mxCell>
        <mxCell id="n3AzVM-CFkoOQMawForS-146" value="&lt;b&gt;&lt;font style=&quot;font-size: 18px;&quot;&gt;transaction&lt;/font&gt;&lt;/b&gt;" style="text;html=1;align=center;verticalAlign=middle;resizable=0;points=[];autosize=1;strokeColor=none;fillColor=none;" vertex="1" parent="1">
          <mxGeometry x="555" y="1180" width="120" height="40" as="geometry" />
        </mxCell>
        <mxCell id="n3AzVM-CFkoOQMawForS-147" value="&lt;b&gt;&lt;font style=&quot;font-size: 18px;&quot;&gt;mode&lt;/font&gt;&lt;/b&gt;" style="text;html=1;align=center;verticalAlign=middle;resizable=0;points=[];autosize=1;strokeColor=none;fillColor=none;" vertex="1" parent="1">
          <mxGeometry x="580" y="1270" width="70" height="40" as="geometry" />
        </mxCell>
        <mxCell id="n3AzVM-CFkoOQMawForS-148" value="&lt;b&gt;&lt;font style=&quot;font-size: 18px;&quot;&gt;credit /&lt;/font&gt;&lt;/b&gt;" style="text;html=1;align=center;verticalAlign=middle;resizable=0;points=[];autosize=1;strokeColor=none;fillColor=none;" vertex="1" parent="1">
          <mxGeometry x="710" y="1200" width="80" height="40" as="geometry" />
        </mxCell>
        <mxCell id="n3AzVM-CFkoOQMawForS-149" value="&lt;b&gt;&lt;font style=&quot;font-size: 18px;&quot;&gt;debit&lt;/font&gt;&lt;/b&gt;" style="text;html=1;align=center;verticalAlign=middle;resizable=0;points=[];autosize=1;strokeColor=none;fillColor=none;" vertex="1" parent="1">
          <mxGeometry x="715" y="1220" width="70" height="40" as="geometry" />
        </mxCell>
        <mxCell id="n3AzVM-CFkoOQMawForS-150" value="&lt;b&gt;&lt;font style=&quot;font-size: 18px;&quot;&gt;upi&lt;/font&gt;&lt;/b&gt;" style="text;html=1;align=center;verticalAlign=middle;resizable=0;points=[];autosize=1;strokeColor=none;fillColor=none;" vertex="1" parent="1">
          <mxGeometry x="720" y="1340" width="50" height="40" as="geometry" />
        </mxCell>
      </root>
    </mxGraphModel>
  </diagram>
  <diagram id="Nw7OZuZKrftR-opD4Z8D" name="Page-2">
    <mxGraphModel dx="2023" dy="675" grid="1" gridSize="10" guides="1" tooltips="1" connect="1" arrows="1" fold="1" page="1" pageScale="1" pageWidth="850" pageHeight="1100" math="0" shadow="0">
      <root>
        <mxCell id="0" />
        <mxCell id="1" parent="0" />
        <mxCell id="QbhfX6cE94zvI3nBOAn8-2" value="&lt;span style=&quot;font-size: 21px;&quot;&gt;&lt;b&gt;Level 0&lt;/b&gt;&lt;/span&gt;" style="text;html=1;align=center;verticalAlign=middle;resizable=0;points=[];autosize=1;strokeColor=#9673a6;fillColor=#e1d5e7;" vertex="1" parent="1">
          <mxGeometry x="-80" y="40" width="90" height="40" as="geometry" />
        </mxCell>
        <mxCell id="QbhfX6cE94zvI3nBOAn8-27" value="&lt;b&gt;&lt;font style=&quot;font-size: 17px;&quot;&gt;USER&lt;/font&gt;&lt;/b&gt;" style="shape=umlActor;verticalLabelPosition=bottom;verticalAlign=top;html=1;fillColor=#f5f5f5;fontColor=#333333;strokeColor=#666666;" vertex="1" parent="1">
          <mxGeometry x="400" y="90" width="40" height="60" as="geometry" />
        </mxCell>
        <mxCell id="QbhfX6cE94zvI3nBOAn8-33" value="" style="ellipse;whiteSpace=wrap;html=1;fillColor=#f5f5f5;strokeColor=#666666;fontColor=#333333;" vertex="1" parent="1">
          <mxGeometry x="170" y="230" width="140" height="60" as="geometry" />
        </mxCell>
        <mxCell id="QbhfX6cE94zvI3nBOAn8-34" value="" style="ellipse;whiteSpace=wrap;html=1;fillColor=#f5f5f5;strokeColor=#666666;fontColor=#333333;" vertex="1" parent="1">
          <mxGeometry x="530" y="230" width="140" height="60" as="geometry" />
        </mxCell>
        <mxCell id="QbhfX6cE94zvI3nBOAn8-35" value="" style="endArrow=classic;html=1;rounded=0;entryX=0;entryY=0;entryDx=0;entryDy=0;" edge="1" parent="1" target="QbhfX6cE94zvI3nBOAn8-34">
          <mxGeometry width="50" height="50" relative="1" as="geometry">
            <mxPoint x="450" y="150" as="sourcePoint" />
            <mxPoint x="530" y="230" as="targetPoint" />
          </mxGeometry>
        </mxCell>
        <mxCell id="QbhfX6cE94zvI3nBOAn8-36" value="" style="endArrow=classic;html=1;rounded=0;entryX=1;entryY=0;entryDx=0;entryDy=0;" edge="1" parent="1" target="QbhfX6cE94zvI3nBOAn8-33">
          <mxGeometry width="50" height="50" relative="1" as="geometry">
            <mxPoint x="390" y="150" as="sourcePoint" />
            <mxPoint x="310" y="230" as="targetPoint" />
          </mxGeometry>
        </mxCell>
        <mxCell id="QbhfX6cE94zvI3nBOAn8-37" value="&lt;span style=&quot;font-size: 20px;&quot;&gt;Log in&amp;nbsp;&lt;/span&gt;" style="text;html=1;align=center;verticalAlign=middle;resizable=0;points=[];autosize=1;strokeColor=none;fillColor=none;" vertex="1" parent="1">
          <mxGeometry x="200" y="240" width="80" height="40" as="geometry" />
        </mxCell>
        <mxCell id="QbhfX6cE94zvI3nBOAn8-38" value="&lt;font style=&quot;font-size: 20px;&quot;&gt;Sign in&lt;/font&gt;" style="text;html=1;align=center;verticalAlign=middle;resizable=0;points=[];autosize=1;strokeColor=none;fillColor=none;" vertex="1" parent="1">
          <mxGeometry x="560" y="240" width="80" height="40" as="geometry" />
        </mxCell>
        <mxCell id="QbhfX6cE94zvI3nBOAn8-39" value="&lt;span style=&quot;font-size: 17px;&quot;&gt;&lt;b&gt;DOCTOR&lt;/b&gt;&lt;/span&gt;" style="shape=umlActor;verticalLabelPosition=bottom;verticalAlign=top;html=1;fillColor=#f5f5f5;fontColor=#333333;strokeColor=#666666;" vertex="1" parent="1">
          <mxGeometry x="890" y="90" width="40" height="60" as="geometry" />
        </mxCell>
        <mxCell id="QbhfX6cE94zvI3nBOAn8-41" value="" style="ellipse;whiteSpace=wrap;html=1;fillColor=#f5f5f5;strokeColor=#666666;fontColor=#333333;" vertex="1" parent="1">
          <mxGeometry x="800" y="230" width="220" height="60" as="geometry" />
        </mxCell>
        <mxCell id="QbhfX6cE94zvI3nBOAn8-42" value="" style="endArrow=classic;html=1;rounded=0;" edge="1" parent="1">
          <mxGeometry width="50" height="50" relative="1" as="geometry">
            <mxPoint x="909.5" y="180" as="sourcePoint" />
            <mxPoint x="910" y="230" as="targetPoint" />
          </mxGeometry>
        </mxCell>
        <mxCell id="QbhfX6cE94zvI3nBOAn8-43" value="&lt;font style=&quot;font-size: 19px;&quot;&gt;Manage Appointments&lt;/font&gt;" style="text;html=1;align=center;verticalAlign=middle;resizable=0;points=[];autosize=1;strokeColor=none;fillColor=none;" vertex="1" parent="1">
          <mxGeometry x="805" y="240" width="210" height="40" as="geometry" />
        </mxCell>
        <mxCell id="QbhfX6cE94zvI3nBOAn8-44" value="&lt;span style=&quot;font-size: 17px;&quot;&gt;&lt;b&gt;ADMIN&lt;/b&gt;&lt;/span&gt;" style="shape=umlActor;verticalLabelPosition=bottom;verticalAlign=top;html=1;fillColor=#f5f5f5;strokeColor=#666666;fontColor=#333333;" vertex="1" parent="1">
          <mxGeometry x="1220" y="90" width="40" height="60" as="geometry" />
        </mxCell>
        <mxCell id="QbhfX6cE94zvI3nBOAn8-47" value="" style="ellipse;whiteSpace=wrap;html=1;fillColor=#f5f5f5;strokeColor=#666666;fontColor=#333333;" vertex="1" parent="1">
          <mxGeometry x="1150" y="230" width="180" height="60" as="geometry" />
        </mxCell>
        <mxCell id="QbhfX6cE94zvI3nBOAn8-48" value="" style="ellipse;whiteSpace=wrap;html=1;" vertex="1" parent="1">
          <mxGeometry x="1490" y="80" width="140" height="60" as="geometry" />
        </mxCell>
        <mxCell id="QbhfX6cE94zvI3nBOAn8-49" value="" style="ellipse;whiteSpace=wrap;html=1;fillColor=#f5f5f5;strokeColor=#666666;fontColor=#333333;" vertex="1" parent="1">
          <mxGeometry x="60" y="590" width="160" height="60" as="geometry" />
        </mxCell>
        <mxCell id="QbhfX6cE94zvI3nBOAn8-50" value="" style="ellipse;whiteSpace=wrap;html=1;fillColor=#f5f5f5;strokeColor=#666666;fontColor=#333333;" vertex="1" parent="1">
          <mxGeometry x="300" y="600" width="200" height="60" as="geometry" />
        </mxCell>
        <mxCell id="QbhfX6cE94zvI3nBOAn8-52" value="" style="endArrow=classic;html=1;rounded=0;" edge="1" parent="1">
          <mxGeometry width="50" height="50" relative="1" as="geometry">
            <mxPoint x="1239.5" y="180" as="sourcePoint" />
            <mxPoint x="1240" y="230" as="targetPoint" />
          </mxGeometry>
        </mxCell>
        <mxCell id="QbhfX6cE94zvI3nBOAn8-54" value="&lt;span style=&quot;font-size: 21px;&quot;&gt;&lt;b&gt;Level 1&lt;/b&gt;&lt;/span&gt;" style="text;html=1;align=center;verticalAlign=middle;resizable=0;points=[];autosize=1;strokeColor=#9673a6;fillColor=#e1d5e7;" vertex="1" parent="1">
          <mxGeometry x="-80" y="400" width="90" height="40" as="geometry" />
        </mxCell>
        <mxCell id="QbhfX6cE94zvI3nBOAn8-55" value="&lt;b&gt;&lt;font style=&quot;font-size: 17px;&quot;&gt;USER&lt;/font&gt;&lt;/b&gt;" style="shape=umlActor;verticalLabelPosition=bottom;verticalAlign=top;html=1;fillColor=#f5f5f5;strokeColor=#666666;fontColor=#333333;" vertex="1" parent="1">
          <mxGeometry x="380" y="440" width="40" height="60" as="geometry" />
        </mxCell>
        <mxCell id="QbhfX6cE94zvI3nBOAn8-98" style="edgeStyle=orthogonalEdgeStyle;rounded=0;orthogonalLoop=1;jettySize=auto;html=1;entryX=0.5;entryY=0;entryDx=0;entryDy=0;" edge="1" parent="1" source="QbhfX6cE94zvI3nBOAn8-66" target="QbhfX6cE94zvI3nBOAn8-95">
          <mxGeometry relative="1" as="geometry" />
        </mxCell>
        <mxCell id="QbhfX6cE94zvI3nBOAn8-66" value="" style="ellipse;whiteSpace=wrap;html=1;fillColor=#f5f5f5;strokeColor=#666666;fontColor=#333333;" vertex="1" parent="1">
          <mxGeometry x="590" y="595" width="140" height="60" as="geometry" />
        </mxCell>
        <mxCell id="QbhfX6cE94zvI3nBOAn8-76" value="" style="endArrow=classic;html=1;rounded=0;entryX=0.857;entryY=0.167;entryDx=0;entryDy=0;entryPerimeter=0;" edge="1" parent="1" target="QbhfX6cE94zvI3nBOAn8-49">
          <mxGeometry width="50" height="50" relative="1" as="geometry">
            <mxPoint x="370" y="490" as="sourcePoint" />
            <mxPoint x="290" y="570" as="targetPoint" />
            <Array as="points" />
          </mxGeometry>
        </mxCell>
        <mxCell id="QbhfX6cE94zvI3nBOAn8-77" value="" style="endArrow=classic;html=1;rounded=0;entryX=0.325;entryY=0;entryDx=0;entryDy=0;entryPerimeter=0;" edge="1" parent="1" target="QbhfX6cE94zvI3nBOAn8-66">
          <mxGeometry width="50" height="50" relative="1" as="geometry">
            <mxPoint x="430" y="490" as="sourcePoint" />
            <mxPoint x="510" y="570" as="targetPoint" />
          </mxGeometry>
        </mxCell>
        <mxCell id="QbhfX6cE94zvI3nBOAn8-79" value="" style="endArrow=classic;html=1;rounded=0;" edge="1" parent="1">
          <mxGeometry width="50" height="50" relative="1" as="geometry">
            <mxPoint x="400" y="530" as="sourcePoint" />
            <mxPoint x="399.5" y="600" as="targetPoint" />
          </mxGeometry>
        </mxCell>
        <mxCell id="QbhfX6cE94zvI3nBOAn8-94" style="edgeStyle=orthogonalEdgeStyle;rounded=0;orthogonalLoop=1;jettySize=auto;html=1;entryX=0.5;entryY=0;entryDx=0;entryDy=0;" edge="1" parent="1" target="QbhfX6cE94zvI3nBOAn8-92">
          <mxGeometry relative="1" as="geometry">
            <mxPoint x="140" y="650" as="sourcePoint" />
          </mxGeometry>
        </mxCell>
        <mxCell id="QbhfX6cE94zvI3nBOAn8-80" value="&lt;span style=&quot;font-size: 20px;&quot;&gt;View product&lt;/span&gt;" style="text;html=1;align=center;verticalAlign=middle;resizable=0;points=[];autosize=1;strokeColor=none;fillColor=none;" vertex="1" parent="1">
          <mxGeometry x="70" y="600" width="140" height="40" as="geometry" />
        </mxCell>
        <mxCell id="QbhfX6cE94zvI3nBOAn8-81" value="&lt;span style=&quot;font-size: 20px;&quot;&gt;Book appointment&lt;/span&gt;" style="text;html=1;align=center;verticalAlign=middle;resizable=0;points=[];autosize=1;strokeColor=none;fillColor=none;" vertex="1" parent="1">
          <mxGeometry x="310" y="610" width="180" height="40" as="geometry" />
        </mxCell>
        <mxCell id="QbhfX6cE94zvI3nBOAn8-82" value="&lt;span style=&quot;font-size: 20px;&quot;&gt;Skin Test&lt;/span&gt;" style="text;html=1;align=center;verticalAlign=middle;resizable=0;points=[];autosize=1;strokeColor=none;fillColor=none;" vertex="1" parent="1">
          <mxGeometry x="610" y="605" width="100" height="40" as="geometry" />
        </mxCell>
        <mxCell id="QbhfX6cE94zvI3nBOAn8-91" value="&lt;span style=&quot;font-size: 20px;&quot;&gt;Log in&lt;/span&gt;" style="text;html=1;align=center;verticalAlign=middle;resizable=0;points=[];autosize=1;strokeColor=none;fillColor=none;" vertex="1" parent="1">
          <mxGeometry x="1200" y="240" width="80" height="40" as="geometry" />
        </mxCell>
        <mxCell id="QbhfX6cE94zvI3nBOAn8-92" value="" style="ellipse;whiteSpace=wrap;html=1;fillColor=#f5f5f5;strokeColor=#666666;fontColor=#333333;" vertex="1" parent="1">
          <mxGeometry x="60" y="725" width="160" height="70" as="geometry" />
        </mxCell>
        <mxCell id="QbhfX6cE94zvI3nBOAn8-93" value="&lt;span style=&quot;font-size: 20px;&quot;&gt;Add To Cart&amp;nbsp;&lt;/span&gt;" style="text;html=1;align=center;verticalAlign=middle;resizable=0;points=[];autosize=1;strokeColor=none;fillColor=none;" vertex="1" parent="1">
          <mxGeometry x="75" y="740" width="130" height="40" as="geometry" />
        </mxCell>
        <mxCell id="QbhfX6cE94zvI3nBOAn8-95" value="" style="ellipse;whiteSpace=wrap;html=1;fillColor=#f5f5f5;strokeColor=#666666;fontColor=#333333;" vertex="1" parent="1">
          <mxGeometry x="570" y="725" width="180" height="70" as="geometry" />
        </mxCell>
        <mxCell id="QbhfX6cE94zvI3nBOAn8-96" value="&lt;span style=&quot;font-size: 20px;&quot;&gt;face recognition&lt;/span&gt;" style="text;html=1;align=center;verticalAlign=middle;resizable=0;points=[];autosize=1;strokeColor=none;fillColor=none;" vertex="1" parent="1">
          <mxGeometry x="580" y="740" width="160" height="40" as="geometry" />
        </mxCell>
        <mxCell id="QbhfX6cE94zvI3nBOAn8-99" value="&lt;span style=&quot;font-size: 17px;&quot;&gt;&lt;b&gt;ADMIN&lt;/b&gt;&lt;/span&gt;" style="shape=umlActor;verticalLabelPosition=bottom;verticalAlign=top;html=1;fillColor=#f5f5f5;strokeColor=#666666;fontColor=#333333;" vertex="1" parent="1">
          <mxGeometry x="1075" y="435" width="40" height="60" as="geometry" />
        </mxCell>
        <mxCell id="QbhfX6cE94zvI3nBOAn8-101" value="" style="ellipse;whiteSpace=wrap;html=1;fillColor=#f5f5f5;strokeColor=#666666;fontColor=#333333;" vertex="1" parent="1">
          <mxGeometry x="805" y="595" width="140" height="60" as="geometry" />
        </mxCell>
        <mxCell id="QbhfX6cE94zvI3nBOAn8-102" value="" style="ellipse;whiteSpace=wrap;html=1;fillColor=#f5f5f5;strokeColor=#666666;fontColor=#333333;" vertex="1" parent="1">
          <mxGeometry x="1225" y="595" width="160" height="60" as="geometry" />
        </mxCell>
        <mxCell id="QbhfX6cE94zvI3nBOAn8-104" value="" style="endArrow=classic;html=1;rounded=0;entryX=0.267;entryY=0;entryDx=0;entryDy=0;entryPerimeter=0;" edge="1" parent="1" target="QbhfX6cE94zvI3nBOAn8-102">
          <mxGeometry width="50" height="50" relative="1" as="geometry">
            <mxPoint x="1125" y="485" as="sourcePoint" />
            <mxPoint x="1205" y="565" as="targetPoint" />
          </mxGeometry>
        </mxCell>
        <mxCell id="QbhfX6cE94zvI3nBOAn8-105" value="" style="endArrow=classic;html=1;rounded=0;" edge="1" parent="1" target="QbhfX6cE94zvI3nBOAn8-101">
          <mxGeometry width="50" height="50" relative="1" as="geometry">
            <mxPoint x="1065" y="485" as="sourcePoint" />
            <mxPoint x="985" y="565" as="targetPoint" />
          </mxGeometry>
        </mxCell>
        <mxCell id="QbhfX6cE94zvI3nBOAn8-106" value="&lt;font style=&quot;font-size: 16px;&quot;&gt;Add Category&lt;/font&gt;" style="text;html=1;align=center;verticalAlign=middle;resizable=0;points=[];autosize=1;strokeColor=none;fillColor=none;" vertex="1" parent="1">
          <mxGeometry x="815" y="610" width="120" height="30" as="geometry" />
        </mxCell>
        <mxCell id="QbhfX6cE94zvI3nBOAn8-108" value="&lt;font style=&quot;font-size: 16px;&quot;&gt;Delete Category&lt;/font&gt;" style="text;html=1;align=center;verticalAlign=middle;resizable=0;points=[];autosize=1;strokeColor=none;fillColor=none;" vertex="1" parent="1">
          <mxGeometry x="1235" y="610" width="140" height="30" as="geometry" />
        </mxCell>
        <mxCell id="QbhfX6cE94zvI3nBOAn8-109" value="" style="ellipse;whiteSpace=wrap;html=1;fillColor=#f5f5f5;strokeColor=#666666;fontColor=#333333;" vertex="1" parent="1">
          <mxGeometry x="995" y="590" width="190" height="65" as="geometry" />
        </mxCell>
        <mxCell id="QbhfX6cE94zvI3nBOAn8-110" value="&lt;span style=&quot;font-size: 20px;&quot;&gt;Update Category&lt;/span&gt;" style="text;html=1;align=center;verticalAlign=middle;resizable=0;points=[];autosize=1;strokeColor=none;fillColor=none;" vertex="1" parent="1">
          <mxGeometry x="1005" y="605" width="170" height="40" as="geometry" />
        </mxCell>
        <mxCell id="QbhfX6cE94zvI3nBOAn8-112" value="" style="endArrow=classic;html=1;rounded=0;" edge="1" parent="1">
          <mxGeometry width="50" height="50" relative="1" as="geometry">
            <mxPoint x="1094.5" y="525" as="sourcePoint" />
            <mxPoint x="1095" y="585" as="targetPoint" />
          </mxGeometry>
        </mxCell>
        <mxCell id="QbhfX6cE94zvI3nBOAn8-113" value="&lt;span style=&quot;font-size: 21px;&quot;&gt;&lt;b&gt;Level 2&lt;/b&gt;&lt;/span&gt;" style="text;html=1;align=center;verticalAlign=middle;resizable=0;points=[];autosize=1;strokeColor=#6c8ebf;fillColor=#dae8fc;" vertex="1" parent="1">
          <mxGeometry x="-80" y="880" width="90" height="40" as="geometry" />
        </mxCell>
      </root>
    </mxGraphModel>
  </diagram>
</mxfile>
